HIERARCHY
ROOT ui
{
	 OFFSET 0 0 0
	 CHANNELS 3 XPosition YPosition Z Position
	 EndSite
	 {
	 OFFSET 0 -1 0
	 }
}
ROOT li
{
	 OFFSET 0 0 0
	 CHANNELS 3 XPosition YPosition Z Position
	 EndSite
	 {
	 OFFSET 0 -1 0
	 }
}
ROOT ul
{
	 OFFSET 0 0 0
	 CHANNELS 3 XPosition YPosition Z Position
	 EndSite
	 {
	 OFFSET 0 -1 0
	 }
}
ROOT ll
{
	 OFFSET 0 0 0
	 CHANNELS 3 XPosition YPosition Z Position
	 EndSite
	 {
	 OFFSET 0 -1 0
	 }
}
ROOT tt
{
	 OFFSET 0 0 0
	 CHANNELS 3 XPosition YPosition Z Position
	 EndSite
	 {
	 OFFSET 0 -1 0
	 }
}
ROOT tb
{
	 OFFSET 0 0 0
	 CHANNELS 3 XPosition YPosition Z Position
	 EndSite
	 {
	 OFFSET 0 -1 0
	 }
}
ROOT td
{
	 OFFSET 0 0 0
	 CHANNELS 3 XPosition YPosition Z Position
	 EndSite
	 {
	 OFFSET 0 -1 0
	 }
}
ROOT v
{
	 OFFSET 0 0 0
	 CHANNELS 3 XPosition YPosition Z Position
	 EndSite
	 {
	 OFFSET 0 -1 0
	 }
}
ROOT bn
{
	 OFFSET 0 0 0
	 CHANNELS 3 XPosition YPosition Z Position
	 EndSite
	 {
	 OFFSET 0 -1 0
	 }
}
MOTION
Frames: 32
Frame Time: 0.002
0.042239593505859374	-0.003216783046722412	0		0.4071422119140625	-2.406399658203125	0		-0.7792461547851562	0.4276117248535156	0		-0.57955810546875	-2.863616943359375	0		1.5623670654296875	-0.49714654541015624	0		3.126764892578125	-0.6043294677734375	0		4.35161376953125	-0.4423386535644531	0		5.88192919921875	0.26751620483398436	0		-0.15293714904785155	5.93103076171875	0		
-0.004471586227416992	0.00400758695602417	0		0.35646600341796875	-2.394151123046875	0		-0.773976806640625	0.43152920532226563	0		-0.5352759399414062	-2.858927734375	0		1.5666385498046875	-0.4932177734375	0		3.1619951171875	-0.6075787963867187	0		4.355896484375	-0.4364039306640625	0		5.89126318359375	0.2824254455566406	0		-0.08555258941650391	5.95658544921875	0		
-2.4626199901103975E-4	0.007964500904083252	0		0.41072998046875	-2.38448681640625	0		-0.7687522583007812	0.4354788513183594	0		-0.5769683837890625	-2.8417021484375	0		1.5608707275390625	-0.48819940185546873	0		3.1643154296875	-0.5876046752929688	0		4.3601396484375	-0.42943951416015624	0		5.886517578125	0.2914457397460937	0		-0.11847229766845703	5.937759765625	0		
-0.0041152949333190915	0.003998414039611816	0		0.4068584899902344	-2.389452392578125	0		-0.7836217041015625	0.431576171875	0		-0.5527928466796875	-2.83883349609375	0		1.5500201416015624	-0.4891222534179688	0		3.135347900390625	-0.60841943359375	0		4.36029443359375	-0.4294232177734375	0		5.87767138671875	0.29151727294921875	0		-0.1173322525024414	5.93676416015625	0		
-0.011051944732666016	-0.0029230899810791014	0		0.3980124206542969	-2.38136181640625	0		-0.7835179443359375	0.4316126708984375	0		-0.589667236328125	-2.835579833984375	0		1.5471015625	-0.4930655822753906	0		3.14946435546875	-0.6064607543945313	0		4.37038720703125	-0.43143994140625	0		5.886775390625	0.2915082702636719	0		-0.11822857666015625	5.93780712890625	0		
-0.01099893856048584	-0.0028624980449676513	0		0.36907958984375	-2.379131103515625	0		-0.77848876953125	0.42764337158203125	0		-0.5854888916015625	-2.81454345703125	0		1.5471549072265625	-0.4930037231445312	0		3.205440673828125	-0.6197255859375	0		4.35142919921875	-0.4332645263671875	0		5.886921875	0.3075733642578125	0		-0.117186279296875	5.93686181640625	0		
-0.007972868919372558	0.0012000609636306763	0		0.4110536499023438	-2.384296630859375	0		-0.7734630126953125	0.4316937561035156	0		-0.5746312866210938	-2.839527587890625	0		1.547157958984375	-0.49292257690429686	0		3.164538330078125	-0.6034034423828125	0		4.370466796875	-0.4272933044433594	0		5.89997119140625	0.31558074951171877	0		-0.11718712615966796	5.93694189453125	0		
-0.003999713897705078	0.00427300500869751	0		0.40608657836914064	-2.3711708984375	0		-0.773507568359375	0.43178985595703123	0		-0.57748095703125	-2.80641455078125	0		1.54711376953125	-0.49282546997070314	0		3.169376708984375	-0.6233345947265625	0		4.36541650390625	-0.4281657409667969	0		5.8999267578125	0.31567977905273437	0		-0.11723406982421875	5.93703857421875	0		
-0.008103333473205566	0.0014055900573730468	0		0.4039837646484375	-2.374050048828125	0		-0.7735938110351562	0.43189871215820314	0		-0.6165595703125	-2.8050771484375	0		1.5430045166015625	-0.49669232177734374	0		3.19635498046875	-0.6123828125	0		4.36723681640625	-0.444066650390625	0		5.92683984375	0.31563265991210937	0		-0.11732221221923828	5.9371474609375	0		
-0.01124756145477295	-0.0024590649604797365	0		0.4038636474609375	-2.37393212890625	0		-0.783714599609375	0.43207473754882814	0		-0.5447276000976562	-2.81338134765625	0		1.526907470703125	-0.49248046875	0		3.15824072265625	-0.61104150390625	0		4.3652099609375	-0.4279361877441406	0		5.92671875	0.3157522277832031	0		-0.1174449234008789	5.93726513671875	0		
-0.03939318084716797	-0.0021729860305786134	0		0.3757305908203125	-2.37164599609375	0		-0.7788843994140625	0.4281672668457031	0		-0.6148129272460937	-2.802849609375	0		1.531726318359375	-0.4983870849609375	0		3.1640478515625	-0.618953369140625	0		4.37795849609375	-0.44588858032226564	0		5.92657275390625	0.3158763427734375	0		-0.11659897613525391	5.93638134765625	0		
0.04244696044921875	-0.0025311079025268557	0		0.4075902404785156	-2.3687109375	0		-0.7740197143554688	0.4322598876953125	0		-0.6129584350585937	-2.8007392578125	0		1.5395562744140625	-0.5003109436035156	0		3.189883544921875	-0.61998193359375	0		4.3768232421875	-0.44175860595703126	0		5.935501953125	0.3309483032226562	0		-0.1167659454345703	5.93550341796875	0		
0.004326671123504639	0.00381044602394104	0		0.3834769592285156	-2.361451171875	0		-0.7691527099609375	0.4363490905761719	0		-0.6070778198242187	-2.79465576171875	0		1.542423828125	-0.4962086486816406	0		3.17179833984375	-0.6077557983398437	0		4.3947724609375	-0.42374285888671875	0		5.9263515625	0.3321235656738281	0		-0.11691970825195312	5.93662255859375	0		
0.042149574279785156	-0.0022996950149536135	0		0.39240179443359374	-2.3503916015625	0		-0.7843175048828125	0.4325487365722656	0		-0.6132520141601563	-2.8005087890625	0		1.5362420654296876	-0.5030598449707031	0		3.15961083984375	-0.615570556640625	0		4.3815380859375	-0.4395508117675781	0		5.9262099609375	0.33224053955078126	0		-0.11706565093994141	5.93673486328125	0		
-0.039967544555664064	-0.0017171499729156494	0		0.3612861328125	-2.350107421875	0		-0.7844364624023438	0.4326502380371094	0		-0.5763859252929687	-2.803623779296875	0		1.5281358642578124	-0.5009092102050782	0		3.189468994140625	-0.6196407470703125	0		4.39237841796875	-0.4465086669921875	0		5.9350908203125	0.3322960205078125	0		-0.11818421936035156	5.9378427734375	0		
0.046910774230957034	-0.007137445926666259	0		0.39018002319335937	-2.3531875	0		-0.7845278930664062	0.43273834228515623	0		-0.6114435424804687	-2.79833056640625	0		1.5330103759765625	-0.5068474426269531	0		3.1803671875	-0.6214950561523438	0		4.3923173828125	-0.44141455078125	0		5.93904052734375	0.33936883544921875	0		-0.11728829193115234	5.93692578125	0		
-0.04011818313598633	-0.0015547449588775636	0		0.34513623046875	-2.35085009765625	0		-0.7745884399414062	0.43275210571289063	0		-0.6054641723632812	-2.792293212890625	0		1.5389921875	-0.4998070068359375	0		3.186402099609375	-0.6054523315429687	0		4.4072578125	-0.44142279052734373	0		5.939080078125	0.35645068359375	0		-0.11735670471191406	5.9369990234375	0		
0.04989545440673828	0.004974606990814209	0		0.396142822265625	-2.346091796875	0		-0.774614990234375	0.4328070068359375	0		-0.6034735107421875	-2.790249755859375	0		1.54393798828125	-0.50477734375	0		3.18531298828125	-0.6163846435546875	0		4.39223291015625	-0.4412716369628906	0		5.94310009765625	0.3644934387207031	0		-0.11739258575439453	5.93705517578125	0		
-0.03515767288208008	-0.005490036010742188	0		0.39414544677734376	-2.34804150390625	0		-0.7746060180664063	0.43284332275390625	0		-0.5684882202148438	-2.795417724609375	0		1.5848660888671875	-0.5189761962890626	0		3.24634619140625	-0.6126976318359375	0		4.3962548828125	-0.43924920654296873	0		5.952109375	0.36449002075195314	0		-0.11739420318603516	5.9370927734375	0		
0.041910018920898434	-0.0019221589565277099	0		0.3941959838867187	-2.3480224609375	0		-0.7795846557617188	0.4288893127441406	0		-0.6034069213867187	-2.790196044921875	0		1.5429193115234374	-0.5177089233398438	0		3.180341552734375	-0.621286376953125	0		4.41320703125	-0.4553211669921875	0		5.95215380859375	0.3645208740234375	0		-0.11736111450195312	5.93711083984375	0		
-0.04000807571411133	-0.0014445949792861938	0		0.3942817993164062	-2.3480234375	0		-0.779505126953125	0.42888568115234377	0		-0.6033201293945313	-2.79019921875	0		1.5479658203125	-0.5237364501953125	0		3.204452392578125	-0.6164214477539063	0		4.4173291015625	-0.44833706665039064	0		5.9612333984375	0.36447979736328123	0		-0.11729398345947266	5.93710888671875	0		
0.047074951171875	-0.006975127220153809	0		0.3763837585449219	-2.350939453125	0		-0.7693458251953125	0.4368031616210937	0		-0.635146728515625	-2.781035888671875	0		1.5570689697265625	-0.5258075561523438	0		3.223614013671875	-0.6085473022460938	0		4.422478515625	-0.4423786926269531	0		5.97043994140625	0.380418701171875	0		-0.11620581817626953	5.93508056640625	0		
-0.023715196609497072	0.004397754192352295	0		0.402609130859375	-2.33813232421875	0		-0.7692024536132812	0.43675958251953123	0		-0.5919790649414063	-2.778330322265625	0		1.5591619873046876	-0.534857177734375	0		3.205830078125	-0.5964765625	0		4.42260009765625	-0.4464105224609375	0		5.9746298828125	0.3883673706054688	0		-0.11706360626220703	5.93704443359375	0		
0.042419334411621094	-0.0020477519035339356	0		0.39673843383789065	-2.346156494140625	0		-0.7740559692382812	0.4327269592285156	0		-0.5938138427734375	-2.780380126953125	0		1.5593338623046875	-0.5349138793945313	0		3.189920654296875	-0.6104359741210937	0		4.426783203125	-0.44448468017578124	0		5.97470654296875	0.37232080078125	0		-0.11690616607666016	5.93698388671875	0		
-0.007413095951080322	-0.0058329300880432125	0		0.3969331970214844	-2.34623291015625	0		-0.7738668212890625	0.4326482238769531	0		-0.5956298217773438	-2.78244677734375	0		1.5584490966796876	-0.5479818725585938	0		3.213140869140625	-0.6056410522460938	0		4.41698583984375	-0.44249505615234375	0		5.9799423828125	0.38022628784179685	0		-0.11772216033935547	5.937912109375	0		
-0.011189811706542969	-0.0019019559621810914	0		0.33916708374023435	-2.340986083984375	0		-0.7736676635742188	0.43255465698242185	0		-0.6283839721679687	-2.77534765625	0		1.5685797119140625	-0.5601297607421875	0		3.2202890625	-0.614768798828125	0		4.42313330078125	-0.45161526489257814	0		5.9801416015625	0.380143798828125	0		-0.11653787994384765	5.93681396484375	0		
-0.010990416526794434	-0.0020067410469055175	0		0.3703685607910156	-2.341271484375	0		-0.7684454956054687	0.4364197998046875	0		-0.58918798828125	-2.7766806640625	0		1.572802978515625	-0.5562561645507812	0		3.21062353515625	-0.59181201171875	0		4.42643212890625	-0.4347330932617188	0		5.98438720703125	0.3880222473144531	0		-0.11634514617919922	5.936708984375	0		
-0.003759455919265747	0.004838294982910156	0		0.3456011047363281	-2.334239501953125	0		-0.7682554321289062	0.4363054504394531	0		-0.5849732666015625	-2.772818359375	0		1.5729935302734375	-0.5563695068359376	0		3.243708251953125	-0.6101168212890625	0		4.43658154296875	-0.4419034729003906	0		5.97567626953125	0.40496307373046875	0		-0.11615748596191407	5.9365947265625	0		
-0.00760226583480835	0.0017417700290679931	0		0.39076226806640624	-2.3366220703125	0		-0.7731038818359375	0.43221511840820315	0		-0.5868114624023437	-2.77492626953125	0		1.5800802001953125	-0.5715307006835938	0		3.259964111328125	-0.5963317260742188	0		4.4517265625	-0.4471126708984375	0		5.97585107421875	0.4048405456542969	0		-0.11697441864013672	5.93748095703125	0		
-0.010471169471740722	-0.0023635149002075194	0		0.33988482666015624	-2.341447998046875	0		-0.7729488525390625	0.4320934143066406	0		-0.5886729125976562	-2.77703662109375	0		1.5741929931640626	-0.5786207885742187	0		3.218094970703125	-0.60021435546875	0		4.44593310546875	-0.43820709228515625	0		5.97600634765625	0.40470867919921877	0		-0.11780523681640626	5.93836376953125	0		
-0.010339696884155274	-0.00248661208152771	0		0.3979796447753906	-2.346910400390625	0		-0.772816162109375	0.431972412109375	0		-0.6605070190429687	-2.76973779296875	0		1.5743228759765624	-0.578748291015625	0		3.207295166015625	-0.5882823486328125	0		4.43608154296875	-0.4352835998535156	0		5.976138671875	0.40456906127929687	0		-0.15169766235351562	5.93143994140625	0		
-0.007208209991455078	0.00137532901763916	0		0.3441375732421875	-2.33671728515625	0		-0.7577356567382812	0.42676751708984373	0		-0.5824173583984374	-2.771311279296875	0		1.591405029296875	-0.5829744873046875	0		3.26040576171875	-0.5877256469726563	0		4.4402236328125	-0.42944491577148436	0		5.98029541015625	0.41240057373046873	0		-0.11944304656982421	5.9521328125	0		
